<mxfile host="app.diagrams.net" modified="2022-02-08T09:25:34.556Z" agent="5.0 (Windows NT 10.0; Win64; x64) AppleWebKit/537.36 (KHTML, like Gecko) Chrome/97.0.4692.99 Safari/537.36 Edg/97.0.1072.69" etag="9Gnj4CILGDnzzuKLLnC3" version="14.9.2" type="github">
  <diagram id="mAcC-SYZxN9UTLEDWW7R" name="Page-1">
    <mxGraphModel dx="1422" dy="762" grid="1" gridSize="10" guides="1" tooltips="1" connect="1" arrows="1" fold="1" page="1" pageScale="1" pageWidth="827" pageHeight="1169" math="0" shadow="0">
      <root>
        <mxCell id="0" />
        <mxCell id="1" parent="0" />
        <mxCell id="-iTCnssTWa8zb8XlnuAo-39" style="edgeStyle=orthogonalEdgeStyle;rounded=0;orthogonalLoop=1;jettySize=auto;html=1;entryX=0;entryY=0.5;entryDx=0;entryDy=0;" parent="1" source="-iTCnssTWa8zb8XlnuAo-14" target="-iTCnssTWa8zb8XlnuAo-38" edge="1">
          <mxGeometry relative="1" as="geometry" />
        </mxCell>
        <mxCell id="-iTCnssTWa8zb8XlnuAo-41" style="edgeStyle=orthogonalEdgeStyle;rounded=0;orthogonalLoop=1;jettySize=auto;html=1;entryX=0;entryY=0.5;entryDx=0;entryDy=0;" parent="1" source="-iTCnssTWa8zb8XlnuAo-14" target="-iTCnssTWa8zb8XlnuAo-40" edge="1">
          <mxGeometry relative="1" as="geometry" />
        </mxCell>
        <mxCell id="-iTCnssTWa8zb8XlnuAo-51" style="edgeStyle=orthogonalEdgeStyle;rounded=0;orthogonalLoop=1;jettySize=auto;html=1;entryX=0;entryY=0.5;entryDx=0;entryDy=0;" parent="1" source="-iTCnssTWa8zb8XlnuAo-14" target="-iTCnssTWa8zb8XlnuAo-50" edge="1">
          <mxGeometry relative="1" as="geometry" />
        </mxCell>
        <mxCell id="-iTCnssTWa8zb8XlnuAo-59" style="edgeStyle=orthogonalEdgeStyle;rounded=0;orthogonalLoop=1;jettySize=auto;html=1;entryX=0;entryY=0.5;entryDx=0;entryDy=0;" parent="1" source="-iTCnssTWa8zb8XlnuAo-14" target="-iTCnssTWa8zb8XlnuAo-58" edge="1">
          <mxGeometry relative="1" as="geometry" />
        </mxCell>
        <mxCell id="-iTCnssTWa8zb8XlnuAo-14" value="sys_mmap" style="whiteSpace=wrap;html=1;" parent="1" vertex="1">
          <mxGeometry x="90" y="110" width="120" height="60" as="geometry" />
        </mxCell>
        <mxCell id="-iTCnssTWa8zb8XlnuAo-45" style="edgeStyle=orthogonalEdgeStyle;rounded=0;orthogonalLoop=1;jettySize=auto;html=1;entryX=0;entryY=0.5;entryDx=0;entryDy=0;" parent="1" source="-iTCnssTWa8zb8XlnuAo-38" target="-iTCnssTWa8zb8XlnuAo-42" edge="1">
          <mxGeometry relative="1" as="geometry" />
        </mxCell>
        <mxCell id="-iTCnssTWa8zb8XlnuAo-46" style="edgeStyle=orthogonalEdgeStyle;rounded=0;orthogonalLoop=1;jettySize=auto;html=1;entryX=0;entryY=0.5;entryDx=0;entryDy=0;" parent="1" source="-iTCnssTWa8zb8XlnuAo-38" target="-iTCnssTWa8zb8XlnuAo-44" edge="1">
          <mxGeometry relative="1" as="geometry" />
        </mxCell>
        <mxCell id="-iTCnssTWa8zb8XlnuAo-38" value="" style="whiteSpace=wrap;html=1;" parent="1" vertex="1">
          <mxGeometry x="210" y="900" width="120" height="60" as="geometry" />
        </mxCell>
        <mxCell id="-iTCnssTWa8zb8XlnuAo-47" style="edgeStyle=orthogonalEdgeStyle;rounded=0;orthogonalLoop=1;jettySize=auto;html=1;entryX=0;entryY=0.5;entryDx=0;entryDy=0;" parent="1" source="-iTCnssTWa8zb8XlnuAo-40" target="-iTCnssTWa8zb8XlnuAo-43" edge="1">
          <mxGeometry relative="1" as="geometry" />
        </mxCell>
        <mxCell id="-iTCnssTWa8zb8XlnuAo-53" style="edgeStyle=orthogonalEdgeStyle;rounded=0;orthogonalLoop=1;jettySize=auto;html=1;entryX=0;entryY=0.5;entryDx=0;entryDy=0;" parent="1" source="-iTCnssTWa8zb8XlnuAo-40" target="-iTCnssTWa8zb8XlnuAo-52" edge="1">
          <mxGeometry relative="1" as="geometry" />
        </mxCell>
        <mxCell id="-iTCnssTWa8zb8XlnuAo-55" style="edgeStyle=orthogonalEdgeStyle;rounded=0;orthogonalLoop=1;jettySize=auto;html=1;entryX=0;entryY=0.5;entryDx=0;entryDy=0;" parent="1" source="-iTCnssTWa8zb8XlnuAo-40" target="-iTCnssTWa8zb8XlnuAo-54" edge="1">
          <mxGeometry relative="1" as="geometry" />
        </mxCell>
        <mxCell id="-iTCnssTWa8zb8XlnuAo-57" style="edgeStyle=orthogonalEdgeStyle;rounded=0;orthogonalLoop=1;jettySize=auto;html=1;entryX=0;entryY=0.5;entryDx=0;entryDy=0;" parent="1" source="-iTCnssTWa8zb8XlnuAo-40" target="-iTCnssTWa8zb8XlnuAo-56" edge="1">
          <mxGeometry relative="1" as="geometry" />
        </mxCell>
        <mxCell id="-iTCnssTWa8zb8XlnuAo-40" value="sys_map" style="whiteSpace=wrap;html=1;" parent="1" vertex="1">
          <mxGeometry x="210" y="460" width="120" height="60" as="geometry" />
        </mxCell>
        <mxCell id="-iTCnssTWa8zb8XlnuAo-42" value="" style="whiteSpace=wrap;html=1;" parent="1" vertex="1">
          <mxGeometry x="330" y="990" width="120" height="60" as="geometry" />
        </mxCell>
        <mxCell id="-iTCnssTWa8zb8XlnuAo-43" value="sysmap1" style="whiteSpace=wrap;html=1;" parent="1" vertex="1">
          <mxGeometry x="330" y="530" width="120" height="60" as="geometry" />
        </mxCell>
        <mxCell id="-iTCnssTWa8zb8XlnuAo-44" value="" style="whiteSpace=wrap;html=1;" parent="1" vertex="1">
          <mxGeometry x="330" y="1090" width="120" height="60" as="geometry" />
        </mxCell>
        <mxCell id="-iTCnssTWa8zb8XlnuAo-50" value="" style="whiteSpace=wrap;html=1;" parent="1" vertex="1">
          <mxGeometry x="210" y="1160" width="120" height="60" as="geometry" />
        </mxCell>
        <mxCell id="-iTCnssTWa8zb8XlnuAo-52" value="sysmap2" style="whiteSpace=wrap;html=1;" parent="1" vertex="1">
          <mxGeometry x="330" y="610" width="120" height="60" as="geometry" />
        </mxCell>
        <mxCell id="-iTCnssTWa8zb8XlnuAo-54" value="sysmap2" style="whiteSpace=wrap;html=1;" parent="1" vertex="1">
          <mxGeometry x="330" y="695" width="120" height="60" as="geometry" />
        </mxCell>
        <mxCell id="-iTCnssTWa8zb8XlnuAo-56" value="sysmap2" style="whiteSpace=wrap;html=1;" parent="1" vertex="1">
          <mxGeometry x="330" y="790" width="120" height="60" as="geometry" />
        </mxCell>
        <mxCell id="-iTCnssTWa8zb8XlnuAo-66" style="edgeStyle=orthogonalEdgeStyle;rounded=0;orthogonalLoop=1;jettySize=auto;html=1;" parent="1" source="-iTCnssTWa8zb8XlnuAo-58" target="-iTCnssTWa8zb8XlnuAo-60" edge="1">
          <mxGeometry relative="1" as="geometry" />
        </mxCell>
        <mxCell id="-iTCnssTWa8zb8XlnuAo-67" style="edgeStyle=orthogonalEdgeStyle;rounded=0;orthogonalLoop=1;jettySize=auto;html=1;entryX=0;entryY=0.5;entryDx=0;entryDy=0;" parent="1" source="-iTCnssTWa8zb8XlnuAo-58" target="-iTCnssTWa8zb8XlnuAo-61" edge="1">
          <mxGeometry relative="1" as="geometry" />
        </mxCell>
        <mxCell id="-iTCnssTWa8zb8XlnuAo-58" value="while&lt;br&gt;judge" style="rhombus;whiteSpace=wrap;html=1;" parent="1" vertex="1">
          <mxGeometry x="210" y="170" width="80" height="80" as="geometry" />
        </mxCell>
        <mxCell id="-iTCnssTWa8zb8XlnuAo-69" style="edgeStyle=orthogonalEdgeStyle;rounded=0;orthogonalLoop=1;jettySize=auto;html=1;entryX=0;entryY=0.5;entryDx=0;entryDy=0;" parent="1" source="-iTCnssTWa8zb8XlnuAo-60" target="-iTCnssTWa8zb8XlnuAo-68" edge="1">
          <mxGeometry relative="1" as="geometry" />
        </mxCell>
        <mxCell id="-iTCnssTWa8zb8XlnuAo-60" value="sys_map" style="whiteSpace=wrap;html=1;" parent="1" vertex="1">
          <mxGeometry x="320" y="180" width="120" height="60" as="geometry" />
        </mxCell>
        <mxCell id="-iTCnssTWa8zb8XlnuAo-61" value="sys_map" style="whiteSpace=wrap;html=1;" parent="1" vertex="1">
          <mxGeometry x="290" y="380" width="120" height="60" as="geometry" />
        </mxCell>
        <mxCell id="-iTCnssTWa8zb8XlnuAo-68" value="sys_map" style="whiteSpace=wrap;html=1;" parent="1" vertex="1">
          <mxGeometry x="440" y="260" width="120" height="60" as="geometry" />
        </mxCell>
      </root>
    </mxGraphModel>
  </diagram>
</mxfile>
